<?xml version="1.0" standalone="no"?>
<!DOCTYPE svg PUBLIC "-//W3C//DTD SVG 20010904//EN"
 "http://www.w3.org/TR/2001/REC-SVG-20010904/DTD/svg10.dtd">
<svg version="1.0" xmlns="http://www.w3.org/2000/svg"
 width="296.000000pt" height="320.000000pt" viewBox="0 0 296.000000 320.000000"
 preserveAspectRatio="xMidYMid meet">

<g transform="translate(0.000000,320.000000) scale(0.100000,-0.100000)"
fill="#000000" stroke="none">
<path d="M823 3150 c-131 -61 -258 -154 -378 -275 -435 -436 -563 -1105 -326
-1700 68 -171 208 -381 332 -500 l63 -60 -66 72 c-97 105 -163 202 -229 338
-96 198 -139 385 -139 607 0 508 275 967 728 1215 l82 45 0 71 c0 64 17 160
35 210 10 26 -10 21 -102 -23z"/>
<path d="M1287 2715 c-236 -45 -440 -157 -608 -333 -209 -218 -312 -476 -312
-782 0 -280 93 -536 270 -744 390 -457 1087 -517 1546 -135 418 349 531 930
276 1419 -75 145 -220 305 -359 400 -92 63 -236 128 -347 156 -125 33 -345 42
-466 19z m153 -152 c0 -25 0 -26 20 -8 11 10 23 15 27 11 5 -4 0 -12 -10 -17
-16 -10 -16 -12 3 -36 27 -34 17 -43 -15 -13 l-25 23 0 -22 c0 -12 -4 -19 -10
-16 -5 3 -10 28 -10 56 0 27 5 49 10 49 6 0 10 -12 10 -27z m-45 -16 c-12 -10
-16 -22 -13 -40 3 -15 2 -27 -2 -27 -11 0 -20 27 -20 56 0 19 5 24 27 24 25 0
26 -1 8 -13z m-51 -19 c16 -26 -4 -52 -42 -56 -26 -3 -32 1 -38 23 -4 15 -1
31 7 41 16 19 59 14 73 -8z m286 -13 c0 -43 18 -46 33 -5 16 42 29 37 21 -7
-4 -21 -7 -39 -8 -39 0 -1 -16 1 -33 3 -31 5 -33 8 -33 44 0 22 5 39 10 39 6
0 10 -16 10 -35z m114 18 c4 -9 2 -20 -5 -23 -6 -4 -12 -19 -12 -34 -1 -14 -8
-26 -14 -26 -16 0 -16 13 -2 63 11 40 23 47 33 20z m41 7 c3 -5 1 -10 -4 -10
-6 0 -11 5 -11 10 0 6 2 10 4 10 3 0 8 -4 11 -10z m-549 -88 c-3 -3 -15 3 -26
13 -20 18 -20 17 -20 -8 0 -15 -4 -27 -9 -27 -14 0 -54 60 -46 68 4 4 13 -2
21 -12 14 -19 14 -19 14 1 0 30 19 39 35 17 14 -18 14 -18 15 2 0 40 15 35 18
-6 2 -23 1 -45 -2 -48z m590 66 c-2 -7 -10 -30 -17 -50 -11 -33 -29 -52 -29
-31 0 19 34 93 42 93 5 0 7 -6 4 -12z m-46 -7 c0 -20 -23 -71 -32 -71 -6 0 -7
7 -4 16 3 9 9 27 12 40 6 22 24 34 24 15z m85 -1 c3 -5 1 -10 -4 -10 -6 0 -11
5 -11 10 0 6 2 10 4 10 3 0 8 -4 11 -10z m-752 -37 c-3 -6 4 -20 15 -31 20
-20 19 -32 -4 -32 -6 0 -15 11 -18 25 -4 14 -11 25 -16 25 -11 0 -14 33 -4 43
9 9 32 -16 27 -30z m417 7 c0 -11 -4 -20 -8 -20 -4 0 -8 9 -9 20 -1 11 2 20 8
20 5 0 9 -9 9 -20z m330 5 c0 -15 -35 -73 -41 -69 -10 6 21 74 33 74 4 0 8 -2
8 -5z m48 -12 c-2 -10 -11 -27 -21 -38 -10 -10 -15 -25 -13 -32 6 -14 -10 -18
-18 -4 -7 10 15 73 29 83 17 13 26 9 23 -9z m-831 -25 c17 -28 13 -57 -8 -68
-25 -14 -44 -8 -58 18 -20 38 43 86 66 50z m876 -43 c41 28 42 15 2 -20 -37
-32 -85 -47 -85 -26 0 5 8 8 18 7 12 -1 18 8 20 29 5 49 16 64 20 27 3 -31 4
-32 25 -17z m-958 -21 c22 -34 11 -44 -14 -13 -15 19 -22 21 -32 12 -9 -9 -9
-17 4 -36 24 -37 7 -41 -19 -6 l-23 32 22 18 c30 25 42 24 62 -7z m973 -46
c-2 -6 -10 -13 -16 -14 -7 -1 -8 0 -2 3 5 2 8 9 4 14 -3 5 0 9 6 9 7 0 10 -5
8 -12z m-1098 -33 c33 -34 33 -35 15 -55 -26 -29 -63 -26 -71 5 -4 14 -1 32 6
40 7 8 10 22 6 30 -9 25 8 17 44 -20z m1234 19 c21 -20 20 -34 -4 -62 l-19
-23 -25 22 c-43 38 -27 75 19 45 16 -10 25 -12 25 -5 0 6 -9 13 -20 16 -11 3
-20 9 -20 14 0 15 27 10 44 -7z m-484 -53 c232 -131 435 -256 462 -285 71 -74
99 -189 73 -301 -9 -38 -26 -87 -39 -110 -30 -52 -45 -80 -189 -335 -140 -247
-195 -313 -292 -349 -62 -23 -152 -28 -206 -10 -31 11 -186 98 -337 190 -35
22 -65 39 -67 39 -9 0 -121 73 -143 94 -33 29 -67 100 -82 168 -20 89 5 190
78 315 10 17 77 133 148 258 70 124 141 241 156 259 33 40 119 98 168 114 19
6 67 10 105 9 65 -2 78 -6 165 -56z m553 -15 c23 -18 21 -38 -6 -64 -31 -29
-44 -15 -15 15 17 18 19 26 10 35 -9 9 -17 7 -35 -10 -31 -29 -44 -15 -15 14
27 27 37 28 61 10z m-1363 -24 c0 -4 -7 -18 -16 -30 -17 -24 -14 -39 5 -27 6
3 11 15 11 26 0 10 5 19 10 19 17 0 11 -29 -11 -51 -18 -18 -23 -19 -42 -6
-26 17 -33 43 -17 62 13 16 60 21 60 7z m1430 -56 c6 -8 18 -12 26 -9 30 11
12 -18 -26 -43 -35 -24 -41 -25 -55 -11 -8 9 -15 24 -15 34 0 39 46 57 70 29z
m-1503 -24 c13 -13 28 -20 33 -17 6 3 10 2 10 -4 0 -19 -19 -21 -52 -4 -18 10
-36 23 -40 28 -25 33 14 31 49 -3z m-14 -49 c18 -9 27 -18 20 -20 -7 -2 -22 1
-34 7 -16 9 -24 9 -33 0 -8 -9 -4 -17 19 -36 21 -17 25 -24 14 -24 -9 0 -27 8
-39 18 -18 15 -20 21 -11 45 12 31 21 33 64 10z m1607 -31 c0 -15 -18 -34 -26
-29 -11 7 -39 -13 -46 -33 -5 -12 -7 -11 -13 4 -6 13 -3 23 11 32 10 7 23 17
29 22 11 10 45 13 45 4z m-1665 -59 c-4 -10 -10 -27 -13 -38 -5 -18 -4 -18 12
-6 9 8 15 20 12 27 -3 7 -1 16 3 19 18 11 18 -34 0 -53 -23 -26 -57 -18 -65
14 -7 29 11 54 38 54 15 0 18 -4 13 -17z m1669 -6 c21 -16 18 -62 -4 -62 -8 0
-18 -4 -21 -9 -8 -11 -26 0 -38 23 -7 13 -6 24 5 39 17 25 33 27 58 9z m-1754
-57 c0 -5 -4 -10 -10 -10 -5 0 -10 5 -10 10 0 6 5 10 10 10 6 0 10 -4 10 -10z
m80 -32 c0 -11 -27 -10 -51 2 -32 18 -21 29 16 17 19 -6 35 -14 35 -19z m1716
-13 c8 -13 13 -29 9 -35 -11 -17 -23 -11 -18 10 6 24 -22 39 -40 21 -9 -9 -8
-17 1 -32 17 -27 9 -35 -12 -14 -21 21 -20 44 2 61 25 20 40 17 58 -11z
m-1751 -31 c16 -4 23 -10 18 -15 -14 -14 -73 10 -73 30 0 27 13 34 22 12 4
-11 19 -23 33 -27z m-14 -34 c23 -13 25 -52 4 -70 -8 -7 -25 -10 -40 -6 -20 5
-25 13 -25 36 0 17 7 33 18 39 21 13 20 13 43 1z m1819 0 c0 -5 -7 -10 -15
-10 -11 0 -13 -7 -9 -29 5 -25 2 -30 -27 -40 -39 -13 -49 -14 -49 -2 0 5 14
12 31 16 43 10 36 41 -9 37 -46 -5 -39 12 11 25 58 14 67 14 67 3z m-10 -134
c0 -36 -12 -46 -58 -46 -32 0 -18 17 18 22 39 5 32 33 -7 32 -18 -1 -33 2 -33
6 0 11 19 18 53 19 24 1 27 -2 27 -33z m-1826 -19 c19 -14 18 -73 -2 -71 -7 1
-30 2 -52 3 -22 0 -40 6 -40 11 0 6 7 10 15 10 8 0 15 9 15 20 0 10 8 24 18
29 22 13 25 13 46 -2z m1826 -67 c26 -48 -25 -89 -63 -51 -18 17 -19 24 -9 46
14 31 56 34 72 5z m-1814 -62 c-1 -31 -3 -33 -41 -35 l-40 -2 33 11 c41 14 43
38 2 38 -16 0 -30 5 -30 10 0 6 17 10 39 10 36 0 38 -1 37 -32z m1841 -32 c11
-11 0 -12 -54 -8 -29 2 -53 9 -53 14 0 11 95 6 107 -6z m-1833 -35 c6 -9 -40
-21 -80 -21 -41 0 -26 19 19 23 23 2 45 4 49 5 4 1 9 -2 12 -7z m1800 -13 c15
-24 -3 -52 -37 -56 -33 -4 -53 28 -37 59 14 25 58 23 74 -3z m-1791 -37 c7
-29 -11 -51 -43 -51 -23 0 -31 5 -36 24 -6 26 1 46 17 46 5 0 7 -11 3 -25 -5
-22 -3 -25 20 -25 26 0 36 22 16 35 -15 9 -12 25 4 19 8 -3 16 -13 19 -23z
m1687 -46 c-7 -8 -9 -22 -5 -32 7 -16 9 -15 14 6 4 13 14 29 24 35 23 15 63
-24 52 -51 -5 -10 -7 -22 -6 -27 3 -15 -73 5 -93 24 -18 18 -18 20 -2 45 10
15 20 24 23 21 3 -3 0 -12 -7 -21z m-21 -72 c-4 -23 5 -28 47 -24 32 2 44 0
40 -8 -4 -6 -22 -11 -39 -11 l-32 -1 23 -18 c12 -11 22 -25 22 -32 0 -7 -18 5
-40 26 -37 36 -53 75 -30 75 6 0 9 -3 9 -7z m-1699 -13 c0 -7 13 -8 35 -4 47
8 45 -8 -2 -23 -21 -6 -38 -11 -39 -10 -10 13 -13 47 -5 47 6 0 11 -5 11 -10z
m90 -65 c18 -47 -19 -77 -59 -48 -38 26 -23 67 24 71 19 1 28 -5 35 -23z
m1514 -62 c-4 -13 10 -27 50 -51 66 -39 71 -46 54 -71 -14 -19 -16 -18 -76 21
-47 31 -65 38 -75 29 -10 -8 -18 -7 -30 2 -15 11 -14 16 14 59 26 40 34 46 49
38 11 -6 16 -17 14 -27z m-1484 -7 c0 -7 -11 -18 -25 -24 -14 -6 -25 -16 -25
-21 0 -5 -7 -8 -15 -7 -19 3 -32 16 -16 16 7 0 10 4 7 9 -3 5 8 11 24 15 18 3
30 12 30 21 0 9 5 13 10 10 6 -3 10 -12 10 -19z m50 -82 c0 -16 -38 -44 -60
-44 -9 0 -4 9 15 24 23 19 27 27 18 37 -9 9 -17 8 -37 -4 -14 -9 -27 -13 -30
-8 -3 5 9 18 27 30 l32 21 18 -21 c9 -12 17 -27 17 -35z m1372 -71 c66 -66 75
-101 33 -129 -36 -23 -62 -13 -124 50 -46 47 -52 57 -41 70 19 24 30 20 90
-36 l55 -53 -58 60 c-54 57 -56 62 -40 78 10 9 20 17 22 17 3 0 31 -26 63 -57z
m-1328 22 c9 -9 22 -12 33 -8 16 6 16 5 4 -11 -8 -9 -27 -26 -43 -38 -28 -19
-30 -19 -49 -3 -22 21 -25 45 -7 63 16 16 43 15 62 -3z m25 -81 c-17 -19 -20
-27 -11 -36 9 -9 18 -6 37 12 32 30 42 21 15 -13 -11 -14 -20 -28 -20 -31 0
-12 28 -6 40 9 7 8 20 15 29 15 11 0 6 -9 -17 -32 l-32 -32 -41 41 -41 42 22
31 c12 16 26 27 32 24 5 -4 0 -16 -13 -30z m1179 -86 c23 -37 42 -72 42 -77 0
-18 -33 -21 -57 -6 l-24 16 16 -25 c15 -23 15 -25 -4 -36 -19 -10 -26 -3 -75
72 -52 80 -53 83 -34 96 17 13 22 11 44 -9 26 -25 32 -15 9 15 -13 17 -12 21
3 32 21 16 24 12 80 -78z m-1021 -15 c13 -19 12 -24 -6 -42 -25 -25 -59 -17
-67 15 -13 51 44 72 73 27z m816 -5 c20 -16 59 -122 55 -152 -2 -11 -16 -27
-32 -34 -44 -22 -69 -4 -96 67 -25 68 -22 102 12 119 31 14 41 14 61 0z m-737
-43 c8 -20 -14 -55 -36 -55 -19 0 -55 29 -46 37 3 3 13 -2 22 -12 15 -15 19
-15 32 -1 20 20 8 49 -18 41 -11 -3 -20 -2 -20 3 0 27 55 15 66 -13z m208 16
c10 -11 16 -31 14 -48 -2 -23 -9 -29 -32 -31 -28 -3 -29 -2 -22 29 9 45 -8 24
-22 -27 -14 -49 -15 -79 -1 -46 7 18 14 22 31 16 33 -10 34 -12 17 -42 -21
-38 -81 -44 -103 -10 -14 22 -14 30 0 88 9 36 21 71 26 78 16 19 72 15 92 -7z
m365 -24 c6 -8 14 -28 17 -45 6 -29 4 -32 -19 -32 -19 0 -28 7 -35 28 l-10 27
-1 -30 c0 -42 16 -119 18 -84 1 18 8 28 23 32 28 8 38 1 38 -24 0 -34 -18 -57
-50 -64 -54 -12 -78 25 -81 121 -2 45 2 60 16 70 24 18 69 18 84 1z m-178 -19
c13 -25 4 -145 -13 -165 -6 -7 -25 -13 -44 -13 -50 0 -64 28 -57 109 3 36 10
72 16 79 5 6 27 12 48 12 29 0 41 -5 50 -22z"/>
<path d="M1282 2508 c2 -15 10 -23 23 -23 30 0 27 39 -3 43 -20 3 -23 0 -20
-20z"/>
<path d="M1025 2430 c-8 -13 5 -13 25 0 13 8 13 10 -2 10 -9 0 -20 -4 -23 -10z"/>
<path d="M1044 2405 c-19 -14 -18 -14 4 -15 13 0 22 6 22 15 0 19 -1 19 -26 0z"/>
<path d="M825 2281 c-7 -12 24 -43 36 -36 5 4 9 15 9 26 0 20 -34 27 -45 10z"/>
<path d="M2050 2290 c0 -12 28 -25 36 -17 3 3 -4 10 -15 17 -15 7 -21 7 -21 0z"/>
<path d="M1365 2257 c-58 -22 -105 -59 -138 -105 -47 -69 -156 -256 -151 -263
6 -11 217 -132 231 -133 15 -1 275 441 270 459 -6 16 -109 54 -147 54 -19 0
-49 -6 -65 -12z"/>
<path d="M1610 2122 c-18 -31 -44 -76 -57 -99 l-25 -43 44 25 c46 27 87 32
105 14 8 -8 16 -3 27 20 16 31 39 40 51 21 3 -5 -1 -22 -9 -38 -14 -27 -13
-30 7 -51 18 -18 22 -33 22 -85 0 -36 1 -64 1 -63 10 12 114 199 114 205 0 5
-46 36 -102 69 -161 94 -141 91 -178 25z"/>
<path d="M1931 1963 c-10 -21 -69 -125 -130 -232 -61 -107 -111 -197 -111
-200 0 -3 42 -30 93 -59 50 -28 104 -60 119 -69 15 -9 29 -15 31 -13 17 19
131 229 148 272 52 131 15 248 -103 322 l-27 18 -20 -39z"/>
<path d="M1579 1951 c-47 -47 -38 -119 18 -149 80 -43 162 30 133 117 -7 22
-9 45 -5 52 5 8 4 11 -1 6 -4 -4 -20 -29 -34 -55 -26 -48 -52 -61 -58 -29 -2
9 6 33 18 52 l22 35 -32 0 c-22 0 -41 -9 -61 -29z"/>
<path d="M1502 1938 c-71 -120 -123 -219 -118 -227 7 -11 230 -141 242 -141 5
0 40 55 77 123 53 95 62 116 40 95 -37 -36 -80 -51 -123 -43 -93 18 -146 116
-105 195 21 40 11 38 -13 -2z"/>
<path d="M1067 1808 c-139 -223 -177 -326 -152 -421 16 -63 40 -86 154 -154
53 -30 116 -68 141 -83 266 -162 320 -181 405 -140 68 33 108 80 190 224 l73
130 -127 75 c-69 41 -179 105 -243 143 -65 37 -171 99 -235 136 -65 38 -135
79 -155 91 l-37 22 -14 -23z"/>
<path d="M767 2223 c-4 -3 -7 -13 -7 -20 0 -12 3 -12 15 1 8 8 15 17 15 20 0
8 -15 7 -23 -1z"/>
<path d="M2190 2150 c0 -23 35 -28 43 -6 7 18 -1 26 -25 26 -11 0 -18 -7 -18
-20z"/>
<path d="M627 2003 c-10 -9 -9 -23 2 -23 5 0 11 7 15 15 5 15 -5 20 -17 8z"/>
<path d="M2310 1994 c0 -17 17 -36 24 -26 3 5 -1 15 -9 22 -8 7 -15 9 -15 4z"/>
<path d="M2285 1980 c-4 -6 -2 -17 4 -23 15 -15 25 -2 13 19 -7 12 -11 13 -17
4z"/>
<path d="M571 1821 c-19 -12 -6 -41 18 -41 23 0 34 23 18 39 -13 13 -18 13
-36 2z"/>
<path d="M544 1669 c-10 -17 23 -46 37 -32 7 7 9 19 6 27 -7 18 -33 21 -43 5z"/>
<path d="M2364 1605 c-4 -9 -2 -21 4 -27 15 -15 44 -1 40 19 -4 23 -36 29 -44
8z"/>
<path d="M2350 1461 c0 -11 6 -21 13 -24 20 -7 37 4 37 24 0 14 -7 19 -25 19
-18 0 -25 -5 -25 -19z"/>
<path d="M2334 1375 c-4 -10 -1 -21 7 -26 20 -12 34 -5 34 17 0 24 -33 31 -41
9z"/>
<path d="M650 1230 c6 -11 13 -20 15 -20 3 0 5 9 5 20 0 11 -7 20 -15 20 -13
0 -14 -4 -5 -20z"/>
<path d="M620 1226 c0 -8 5 -18 10 -21 6 -3 10 1 10 9 0 8 -4 18 -10 21 -5 3
-10 -1 -10 -9z"/>
<path d="M753 1024 c-3 -8 -1 -20 4 -25 12 -12 48 14 39 29 -10 17 -36 15 -43
-4z"/>
<path d="M930 851 c0 -28 21 -37 36 -16 16 22 10 35 -17 35 -12 0 -19 -7 -19
-19z"/>
<path d="M1760 821 c0 -16 43 -122 47 -117 3 2 -5 32 -18 65 -20 58 -29 73
-29 52z"/>
<path d="M1401 708 c1 -68 6 -61 11 15 2 26 0 47 -4 47 -5 0 -7 -28 -7 -62z"/>
<path d="M2533 2489 c170 -200 271 -407 324 -659 27 -127 25 -411 -4 -540 -94
-420 -355 -765 -719 -948 l-61 -31 -6 -98 c-3 -54 -13 -122 -22 -151 -9 -30
-15 -56 -12 -58 2 -2 57 23 123 56 434 219 720 642 789 1167 19 143 19 238 1
383 -44 342 -184 646 -406 880 l-71 75 64 -76z"/>
</g>
</svg>
