<?xml version="1.0" standalone="no"?>
<!DOCTYPE svg PUBLIC "-//W3C//DTD SVG 20010904//EN"
 "http://www.w3.org/TR/2001/REC-SVG-20010904/DTD/svg10.dtd">
<svg version="1.0" xmlns="http://www.w3.org/2000/svg"
 width="370.000000pt" height="371.000000pt" viewBox="0 0 370.000000 371.000000"
 preserveAspectRatio="xMidYMid meet">

<g transform="translate(0.000000,371.000000) scale(0.100000,-0.100000)"
fill="#000000" stroke="none">
<path d="M1933 3158 c-196 -159 -233 -191 -233 -200 0 -4 41 -8 90 -8 l90 0 0
-403 0 -404 23 -21 c31 -29 106 -62 144 -62 l33 0 0 605 c0 333 -2 605 -4 605
-3 0 -67 -51 -143 -112z m112 -513 c-14 -32 -28 -56 -30 -53 -3 3 6 29 20 59
14 30 25 61 26 69 1 12 2 12 6 -1 2 -9 -8 -42 -22 -74z"/>
<path d="M2339 2848 c-4 -118 -3 -131 9 -135 8 -3 12 10 12 45 0 33 5 52 14
55 22 9 36 -14 36 -60 0 -24 5 -43 10 -43 6 0 10 22 10 49 0 54 -17 77 -50 66
-16 -5 -20 -2 -21 17 -1 13 -1 26 0 31 0 4 -3 7 -9 7 -5 0 -10 -15 -11 -32z"/>
<path d="M2252 2844 c-11 -20 -4 -104 11 -121 11 -15 47 -18 47 -4 0 5 -7 11
-15 15 -9 3 -15 19 -15 41 0 24 4 35 15 35 8 0 15 5 15 10 0 6 -7 10 -15 10
-8 0 -15 7 -15 15 0 20 -17 19 -28 -1z"/>
<path d="M1615 2688 l-187 -153 96 -3 96 -3 0 -84 c0 -77 2 -85 19 -85 10 0
31 -7 47 -15 l28 -14 -47 -13 -47 -12 0 -294 c0 -292 0 -294 23 -313 37 -33
90 -57 132 -60 l40 -4 3 603 c1 384 -1 602 -7 602 -6 0 -94 -69 -196 -152z"/>
<path d="M1473 2381 c-118 -83 -219 -234 -253 -380 -18 -76 -16 -223 5 -301
47 -179 173 -334 338 -415 106 -52 164 -65 290 -65 104 0 198 20 277 60 226
113 360 330 360 580 0 214 -96 398 -275 526 -35 24 -65 44 -69 44 -3 0 -6 -32
-6 -70 l0 -70 63 -63 c103 -102 157 -230 157 -372 0 -235 -162 -439 -396 -499
-165 -43 -340 7 -471 132 -197 190 -210 484 -32 713 25 32 32 44 16 30 -30
-27 -33 -24 -15 14 7 15 17 24 25 21 8 -3 12 -2 9 3 -3 5 10 23 29 40 30 26
35 36 35 76 0 25 -4 45 -8 45 -5 0 -40 -22 -79 -49z m-42 -184 c-10 -9 -11 -8
-5 6 3 10 9 15 12 12 3 -3 0 -11 -7 -18z"/>
<path d="M892 1040 c-73 -53 -123 -157 -121 -253 2 -85 16 -113 16 -32 1 106
39 181 120 236 31 22 43 37 43 54 0 32 -8 31 -58 -5z"/>
<path d="M1670 986 c0 -2 7 -6 15 -10 8 -3 15 -1 15 4 0 6 -7 10 -15 10 -8 0
-15 -2 -15 -4z"/>
<path d="M976 960 c-83 -42 -129 -115 -128 -204 1 -133 92 -226 222 -226 72 0
122 22 167 74 41 46 56 95 51 171 -5 75 -37 131 -99 172 -56 37 -155 43 -213
13z m94 -22 c0 -6 -3 -9 -6 -5 -4 3 -28 -2 -55 -13 -49 -18 -69 -13 -26 8 49
24 87 28 87 10z m88 -11 c6 -5 12 -13 12 -17 0 -9 -69 22 -70 32 0 8 42 -2 58
-15z m-8 -65 c73 -49 75 -70 20 -167 -58 -100 -74 -106 -159 -62 -99 52 -103
82 -30 203 50 82 78 87 169 26z m-200 30 c0 -5 -9 -17 -19 -26 -11 -10 -23
-31 -26 -47 -4 -16 -11 -29 -16 -29 -14 0 -2 38 25 77 20 32 36 42 36 25z
m265 -12 c10 -11 14 -20 8 -20 -5 0 -18 9 -28 20 -10 11 -14 20 -8 20 5 0 18
-9 28 -20z m45 -115 c0 -50 -9 -85 -22 -85 -6 0 -7 9 -3 23 10 30 10 85 1 122
l-7 30 15 -25 c8 -14 15 -43 16 -65z m-368 -39 c-6 -20 -6 -20 -12 4 -8 29 -1
48 10 30 4 -7 5 -22 2 -34z m18 -49 c0 -16 56 -77 70 -77 6 0 8 -4 5 -10 -9
-14 -51 16 -75 55 -21 34 -27 60 -10 50 6 -3 10 -12 10 -18z m330 -30 c0 -5
-7 -6 -16 -3 -9 3 -18 6 -20 6 -2 0 -4 7 -4 15 0 13 3 13 20 3 11 -7 20 -17
20 -21z m-31 -11 c10 -11 7 -19 -10 -35 -28 -26 -35 -26 -49 -3 -8 14 -9 12
-4 -10 7 -32 -10 -38 -25 -9 -8 15 -4 22 27 44 45 30 46 31 61 13z m-179 -56
c0 -11 -7 -20 -15 -20 -15 0 -21 21 -8 33 12 13 23 7 23 -13z m37 -14 c-4 -9
-11 -16 -17 -16 -11 0 -14 33 -3 44 11 10 26 -11 20 -28z m38 6 c-2 -9 -4 -19
-4 -21 -1 -3 -6 0 -12 6 -13 13 -4 47 10 39 5 -4 8 -14 6 -24z"/>
<path d="M1037 879 c-9 -5 -24 -23 -32 -39 -14 -27 -14 -30 6 -41 23 -12 26
-10 58 42 19 32 19 37 5 43 -19 7 -15 8 -37 -5z"/>
<path d="M1096 863 c-13 -13 -5 -24 14 -18 14 5 20 2 20 -10 0 -9 5 -13 10
-10 6 4 8 11 5 16 -9 14 -42 29 -49 22z"/>
<path d="M1087 823 c-8 -12 16 -36 26 -26 10 10 8 25 -2 19 -5 -4 -11 -1 -13
6 -3 8 -6 9 -11 1z"/>
<path d="M1140 785 c-22 -39 -23 -47 -10 -55 22 -14 28 -12 45 14 17 26 17 77
0 83 -6 2 -22 -17 -35 -42z"/>
<path d="M1055 791 c-8 -14 37 -43 49 -31 7 7 3 15 -10 25 -23 17 -31 18 -39
6z"/>
<path d="M972 770 c-30 -48 -11 -80 76 -124 37 -19 54 -13 82 29 l19 29 -72
43 c-40 23 -77 43 -82 43 -6 0 -16 -9 -23 -20z"/>
<path d="M1170 621 c0 -5 5 -13 10 -16 6 -3 10 -2 10 4 0 5 -4 13 -10 16 -5 3
-10 2 -10 -4z"/>
<path d="M1555 960 c-15 -17 -16 -20 -3 -20 10 0 14 -8 13 -25 -2 -14 1 -27 6
-31 5 -3 9 18 9 45 0 28 -2 51 -3 51 -2 0 -12 -9 -22 -20z"/>
<path d="M1614 958 c-4 -6 -2 -14 4 -16 7 -2 12 -17 12 -33 0 -18 4 -28 10
-24 16 10 12 85 -4 85 -8 0 -18 -5 -22 -12z"/>
<path d="M1796 929 c-9 -23 -14 -44 -10 -48 4 -3 9 0 11 7 3 6 15 12 28 12 13
0 25 -6 28 -12 2 -7 7 -10 11 -7 9 8 -27 89 -40 89 -7 0 -19 -19 -28 -41z m34
1 c0 -5 -5 -10 -11 -10 -5 0 -7 5 -4 10 3 6 8 10 11 10 2 0 4 -4 4 -10z"/>
<path d="M1880 924 c0 -27 4 -43 10 -39 6 3 10 16 10 28 1 21 2 20 18 -5 24
-39 32 -35 32 18 0 29 -4 43 -10 39 -6 -4 -8 -16 -5 -28 5 -19 3 -19 -17 6
-13 15 -27 27 -31 27 -4 0 -7 -21 -7 -46z"/>
<path d="M1970 925 c0 -49 16 -62 22 -17 l4 27 14 -27 c20 -41 30 -34 29 20
-1 39 -2 42 -8 17 l-6 -29 -18 27 c-25 39 -37 33 -37 -18z"/>
<path d="M2060 925 c0 -25 5 -45 10 -45 6 0 10 20 10 45 0 25 -4 45 -10 45 -5
0 -10 -20 -10 -45z"/>
<path d="M2107 925 c21 -64 32 -60 57 23 4 12 3 22 -3 22 -5 0 -13 -15 -17
-32 l-7 -33 -15 33 c-23 47 -33 39 -15 -13z"/>
<path d="M2182 928 c3 -40 5 -43 36 -46 18 -2 32 1 32 7 0 6 -11 11 -25 11
-14 0 -25 5 -25 10 0 6 11 10 25 10 14 0 25 5 25 10 0 6 -11 10 -25 10 -34 0
-32 18 3 23 21 3 19 4 -11 6 l-38 1 3 -42z"/>
<path d="M2270 925 c0 -25 5 -45 10 -45 6 0 10 9 10 20 0 11 3 20 8 20 4 0 13
-9 20 -20 15 -25 37 -27 23 -2 -5 9 -7 30 -4 45 5 25 3 27 -31 27 l-36 0 0
-45z m50 26 c0 -5 -7 -11 -15 -15 -9 -3 -15 0 -15 9 0 8 7 15 15 15 8 0 15 -4
15 -9z"/>
<path d="M2365 960 c-8 -13 13 -40 31 -40 8 0 14 -5 14 -11 0 -7 -10 -9 -26
-5 -19 5 -25 3 -22 -6 6 -16 38 -21 57 -9 18 12 7 41 -19 48 -11 3 -20 9 -20
14 0 5 12 6 26 3 19 -5 25 -4 20 5 -9 14 -53 15 -61 1z"/>
<path d="M2461 948 c-19 -52 -22 -68 -12 -68 6 0 11 5 11 10 0 14 33 13 48 -2
17 -17 16 3 -2 47 -17 40 -33 45 -45 13z m29 -18 c0 -5 -4 -10 -10 -10 -5 0
-10 5 -10 10 0 6 5 10 10 10 6 0 10 -4 10 -10z"/>
<path d="M2540 925 c0 -28 4 -44 10 -40 6 3 10 13 10 22 0 14 4 13 23 -5 l23
-22 0 43 c-1 40 -3 42 -33 45 -33 3 -33 3 -33 -43z m50 26 c0 -5 -7 -11 -15
-15 -9 -3 -15 0 -15 9 0 8 7 15 15 15 8 0 15 -4 15 -9z"/>
<path d="M2634 945 c9 -13 16 -33 16 -45 0 -11 5 -20 10 -20 6 0 10 10 10 23
0 12 7 33 16 45 13 19 13 22 1 22 -8 0 -18 -8 -22 -17 -6 -17 -7 -17 -16 0 -6
9 -15 17 -21 17 -6 0 -3 -11 6 -25z"/>
<path d="M1351 744 c-1 -93 -34 -160 -105 -216 -33 -26 -53 -51 -57 -69 l-6
-29 40 23 c78 44 135 138 143 240 3 34 1 76 -5 92 -8 26 -9 20 -10 -41z"/>
<path d="M1584 799 c-12 -6 -27 -22 -33 -35 -14 -31 -14 -181 -1 -221 18 -49
75 -66 129 -38 33 16 41 33 41 81 0 32 -2 34 -35 34 -31 0 -35 -3 -35 -27 0
-16 -4 -35 -10 -43 -16 -25 -21 8 -18 111 3 96 20 130 26 52 3 -42 4 -43 38
-43 34 0 34 1 34 44 0 58 -23 86 -75 91 -22 3 -50 0 -61 -6z"/>
<path d="M1795 799 c-40 -23 -45 -40 -45 -145 0 -119 3 -130 41 -149 40 -21
74 -18 106 9 28 24 28 26 28 135 0 98 -2 113 -21 131 -24 25 -81 35 -109 19z
m55 -149 c0 -55 -4 -102 -10 -105 -6 -4 -10 33 -10 105 0 72 4 109 10 105 6
-3 10 -50 10 -105z"/>
<path d="M2005 801 c-43 -18 -50 -39 -50 -152 0 -100 2 -110 23 -131 17 -17
34 -23 67 -23 56 0 82 24 87 80 3 40 3 40 -34 43 -36 3 -37 2 -40 -35 -2 -21
-7 -37 -13 -35 -6 1 -10 44 -10 102 0 58 4 101 10 103 6 1 11 -17 13 -40 3
-43 3 -43 43 -43 l40 0 -6 48 c-4 26 -15 55 -24 65 -20 21 -77 30 -106 18z"/>
<path d="M2209 799 c-38 -14 -49 -48 -49 -155 0 -92 1 -97 29 -125 44 -44 116
-35 140 18 14 31 14 195 0 227 -7 14 -25 30 -42 36 -35 12 -43 12 -78 -1z m51
-150 c0 -71 -4 -108 -10 -104 -11 7 -14 198 -3 208 12 13 13 7 13 -104z"/>
<path d="M2370 650 l0 -150 30 0 c29 0 29 1 32 63 l3 62 19 -62 c18 -61 20
-63 52 -63 l34 0 0 150 0 150 -30 0 c-29 0 -29 -1 -32 -62 l-3 -63 -20 62
c-19 60 -21 63 -52 63 l-33 0 0 -150z"/>
<path d="M2570 676 c0 -68 3 -132 6 -141 8 -19 55 -45 83 -45 36 0 70 22 81
53 5 16 10 81 10 143 l0 114 -40 0 -40 0 0 -124 c0 -73 -4 -127 -10 -131 -6
-4 -10 40 -10 124 l0 131 -40 0 -40 0 0 -124z"/>
<path d="M2760 770 c0 -25 4 -30 25 -30 l25 0 0 -120 0 -120 40 0 40 0 0 120
c0 113 1 120 20 120 16 0 20 7 20 30 l0 30 -85 0 -85 0 0 -30z"/>
</g>
</svg>
